# xmcd CD database file
#
# Track frame offsets:
#	150
#	13832
#	30522
#	47527
#	65812
#	79432
#	98990
#	117725
#	146820
#	162807
#	182542
#	201822
#	220455
#
# Disc length: 2981 seconds
#
# Revision: 1
# Processed by: cddbd v1.5.1PL0 Copyright (c) Steve Scherf et al.
# Submitted via: CDex 1.51
#
DISCID=c10ba30d
DTITLE=Hadden Sayers - Supersonic
DYEAR=2001
DGENRE=Rock
TTITLE0=Email Lover
TTITLE1=Good Man
TTITLE2=No Tears Left To Cry
TTITLE3=Blasted
TTITLE4=Little Bit Of Love
TTITLE5=Love Won't Let Me Go
TTITLE6=Better All The Time
TTITLE7=Emotional
TTITLE8=Tip Of My Tongue
TTITLE9=Solitude
TTITLE10=One More For The Road
TTITLE11=Never Never
TTITLE12=Flat Black Automobile
EXTD=YEAR: 2001
EXTT0=
EXTT1=
EXTT2=
EXTT3=
EXTT4=
EXTT5=
EXTT6=
EXTT7=
EXTT8=
EXTT9=
EXTT10=
EXTT11=
EXTT12=
PLAYORDER=
